<svg width="200" height="91" viewBox="0 0 200 91" fill="none" xmlns="http://www.w3.org/2000/svg">
<path d="M106.842 88.1449V89.9256H55.9141V88.1449H60.3659C62.7402 88.1449 63.9273 86.3642 63.9273 82.8028V24.9299C63.9273 16.5012 61.7905 12.2869 57.5168 12.2869C55.2612 12.2869 52.7089 13.3553 49.8597 15.4921C47.1293 17.629 44.8144 20.0032 42.915 22.6149V82.9809C42.915 86.3048 44.1021 88.0262 46.4764 88.1449H50.9282V89.9256H0V88.1449H4.45176C6.82604 88.1449 8.01317 86.3642 8.01317 82.8028V22.4369C8.01317 19.7065 7.24153 17.8664 5.69826 16.9167C4.15498 15.8483 2.25556 15.4328 0 15.6702V14.2456C6.41054 13.2959 13.7114 11.5152 21.9027 8.90352C30.0939 6.29182 36.8606 3.62077 42.2027 0.890354L42.915 1.7807V19.4097C45.408 16.0857 48.7913 12.7617 53.065 9.43773C57.4574 6.11375 61.9092 3.62077 66.4203 1.95878C69.2694 0.890352 72.356 0.356134 75.68 0.356134C82.0905 0.356134 87.5513 2.49299 92.0625 6.76668C96.5736 11.0404 98.8291 17.5696 98.8291 26.3544V82.9809C98.8291 84.5241 99.1259 85.7706 99.7195 86.7203C100.313 87.6701 101.203 88.1449 102.391 88.1449H106.842Z" fill="#171717"/>
<path d="M199.994 51.8185C200.113 56.4484 198.451 61.8498 195.008 68.0229C191.684 74.0773 186.52 79.3601 179.516 83.8712C172.512 88.3823 163.905 90.6379 153.696 90.6379C144.673 90.6379 136.482 88.8572 129.122 85.2958C121.762 81.7344 115.885 76.511 111.493 69.6256C107.219 62.7402 105.082 54.5489 105.082 45.0518C105.082 36.1483 107.397 28.3132 112.027 21.5465C116.776 14.6611 123.068 9.37838 130.903 5.69826C138.857 1.89942 147.463 0 156.723 0C161.709 0 166.695 0.890359 171.681 2.67106C176.667 4.33305 181.059 7.18218 184.858 11.2184C188.657 15.2547 191.031 20.4187 191.981 26.7106L143.724 52.8869C146.692 58.5852 150.431 62.9182 154.942 65.8861C159.572 68.7352 164.558 70.1598 169.9 70.1598C175.836 70.1598 181.475 68.4384 186.817 64.9957C192.159 61.553 196.373 56.7451 199.46 50.572L199.994 51.8185ZM141.231 47.5448C141.824 49.0881 142.24 50.0378 142.477 50.394L159.572 40.422C159.216 32.943 157.851 25.1079 155.476 16.9167C153.102 8.72545 149.897 4.62983 145.861 4.62983C145.386 4.62983 144.792 4.74854 144.08 4.98597C142.062 5.57954 140.459 7.89445 139.272 11.9307C138.085 15.8483 137.491 20.4781 137.491 25.8202C137.491 33.5366 138.738 40.7781 141.231 47.5448Z" fill="#171717"/>
<path fill-rule="evenodd" clip-rule="evenodd" d="M80 84.8699L141.872 51L143 53.1301L81.1282 87L80 84.8699Z" fill="#171717"/>
</svg>
