<?xml version="1.0" encoding="utf-8"?>
<!-- Generator: Adobe Illustrator 23.0.1, SVG Export Plug-In . SVG Version: 6.00 Build 0)  -->
<svg version="1.1" id="Layer_1" xmlns="http://www.w3.org/2000/svg" xmlns:xlink="http://www.w3.org/1999/xlink" x="0px" y="0px"
	 viewBox="0 0 200 91" style="enable-background:new 0 0 200 91;" xml:space="preserve">
<style type="text/css">
	.st0{fill:#FFFFFF;}
	.st1{fill-rule:evenodd;clip-rule:evenodd;fill:#FFFFFF;}
</style>
<path class="st0" d="M106.8,88.1v1.8H55.9v-1.8h4.5c2.4,0,3.6-1.8,3.6-5.3V24.9c0-8.4-2.1-12.6-6.4-12.6c-2.3,0-4.8,1.1-7.7,3.2
	c-2.7,2.1-5,4.5-6.9,7.1V83c0,3.3,1.2,5,3.6,5.2h4.5V90H0v-1.8h4.5c2.4,0,3.6-1.8,3.6-5.3V22.4c0-2.7-0.8-4.6-2.3-5.5
	c-1.5-1.1-3.4-1.5-5.7-1.2v-1.4C6.5,13.4,13.8,11.6,22,9s15-5.3,20.3-8L43,1.9v17.6c2.5-3.3,5.9-6.6,10.1-10
	c4.4-3.3,8.8-5.8,13.4-7.5c2.8-1.1,5.9-1.6,9.3-1.6c6.4,0,11.9,2.1,16.4,6.4S99,17.6,99,26.4V83c0,1.5,0.3,2.8,0.9,3.7
	c0.6,0.9,1.5,1.4,2.7,1.4H106.8z"/>
<path class="st0" d="M200,51.8c0.1,4.6-1.5,10-5,16.2c-3.3,6.1-8.5,11.3-15.5,15.8s-15.6,6.8-25.8,6.8c-9,0-17.2-1.8-24.6-5.3
	c-7.4-3.6-13.2-8.8-17.6-15.7c-4.3-6.9-6.4-15.1-6.4-24.6c0-8.9,2.3-16.7,6.9-23.5c4.7-6.9,11-12.2,18.9-15.8
	c8-3.8,16.6-5.7,25.8-5.7c5,0,10,0.9,15,2.7c5,1.7,9.4,4.5,13.2,8.5s6.2,9.2,7.1,15.5l-48.3,26.2c3,5.7,6.7,10,11.2,13
	c4.6,2.8,9.6,4.3,15,4.3c5.9,0,11.6-1.7,16.9-5.2c5.3-3.4,9.6-8.3,12.6-14.4L200,51.8z M141.2,47.5c0.6,1.5,1,2.5,1.2,2.8l17.1-10
	c-0.4-7.5-1.7-15.3-4.1-23.5c-2.4-8.2-5.6-12.3-9.6-12.3c-0.5,0-1.1,0.1-1.8,0.4c-2,0.6-3.6,2.9-4.8,6.9c-1.2,3.9-1.8,8.5-1.8,13.9
	C137.5,33.5,138.7,40.8,141.2,47.5z"/>
<path class="st1" d="M80,84.9L141.9,51l1.1,2.1L81.1,87L80,84.9z"/>
</svg>
